<svg width="252" height="82" viewBox="0 0 252 82" fill="none" xmlns="http://www.w3.org/2000/svg">
<g clip-path="url(#clip0_221_35)">
<path d="M244.09 1.83057L7.89614 1.83057C4.09146 1.83057 1.00716 4.97907 1.00716 8.86294L1.00716 73.1589C1.00716 77.0428 4.09146 80.1913 7.89614 80.1913H244.09C247.895 80.1913 250.979 77.0428 250.979 73.1589V8.86294C250.979 4.97907 247.895 1.83057 244.09 1.83057Z" fill="#221F1F" stroke="#4D4B4B"/>
<path d="M22.4449 17.6069C21.9292 18.1635 21.6241 19.0275 21.6241 20.1486V60.1407C21.6241 61.2619 21.9292 62.1238 22.4449 62.6804L44.5231 40.1427L22.4449 17.6069Z" fill="#00E3FF"/>
<path d="M22.5748 17.4766L22.4449 17.6072C22.4882 17.5609 22.5492 17.5409 22.5945 17.4967L22.5748 17.4766Z" fill="#00E3FF"/>
<path d="M22.5768 62.8113L22.5964 62.7912C22.5492 62.749 22.4882 62.7289 22.4449 62.6807L22.5768 62.8113Z" fill="#00E3FF"/>
<path d="M60.6728 37.535L52.0045 32.5078H52.0026L44.5231 40.143L52.0026 47.7821L51.8353 47.8806L52.0026 47.7841L60.6709 42.757C63.1489 41.3204 63.1489 38.9716 60.6728 37.535V37.535Z" fill="#FFE000"/>
<path d="M44.5231 40.1431L22.4449 62.6808C22.4882 62.729 22.5492 62.7491 22.5964 62.7913C23.4231 63.5468 24.6887 63.6252 26.1256 62.7913L51.8372 47.8807L52.0045 47.7822L44.5231 40.1431Z" fill="#FF3A44"/>
<path d="M44.5231 40.145L52.0026 32.5078L52.0045 32.5058L26.1256 17.4967C24.6887 16.6629 23.4192 16.7413 22.5945 17.4967C22.5492 17.5409 22.4882 17.561 22.4449 17.6072L44.5231 40.145Z" fill="#00F076"/>
<path d="M110.252 45.498C106.086 45.498 102.69 48.7309 102.69 53.1895C102.69 57.6178 106.086 60.8809 110.252 60.8809C114.419 60.8809 117.815 57.6178 117.815 53.1895C117.815 48.7329 114.419 45.498 110.252 45.498ZM110.252 57.8509C107.969 57.8509 106.001 55.9281 106.001 53.1895C106.001 50.4227 107.969 48.528 110.252 48.528C112.536 48.528 114.504 50.4207 114.504 53.1895C114.506 55.9281 112.536 57.8509 110.252 57.8509Z" fill="white"/>
<path d="M126.751 45.498C122.584 45.498 119.189 48.7309 119.189 53.1895C119.189 57.6178 122.584 60.8809 126.751 60.8809C130.918 60.8809 134.313 57.6178 134.313 53.1895C134.315 48.7329 130.918 45.498 126.751 45.498ZM126.751 57.8509C124.468 57.8509 122.499 55.9281 122.499 53.1895C122.499 50.4227 124.47 48.528 126.751 48.528C129.032 48.528 131.002 50.4207 131.002 53.1895C131.004 55.9281 129.034 57.8509 126.751 57.8509Z" fill="white"/>
<path d="M198.79 37.8086H195.485V60.4147H198.79V37.8086Z" fill="white"/>
<path d="M90.6269 47.8607V51.1217H98.2757C98.0473 52.9562 97.449 54.2963 96.5337 55.2286C95.4217 56.3639 93.6797 57.6176 90.6269 57.6176C85.9188 57.6176 82.2361 53.7438 82.2361 48.9357C82.2361 44.1275 85.9168 40.2537 90.6269 40.2537C93.168 40.2537 95.0221 41.2744 96.392 42.5844L98.6457 40.2838C96.7345 38.4192 94.1935 36.9927 90.6269 36.9927C84.1769 36.9927 78.7543 42.3534 78.7543 48.9377C78.7543 55.522 84.1769 60.8827 90.6269 60.8827C94.1088 60.8827 96.7345 59.7173 98.7894 57.5332C100.901 55.3773 101.559 52.3474 101.559 49.9001C101.559 49.1426 101.502 48.4434 101.388 47.8607H90.6269Z" fill="white"/>
<path d="M206.909 45.4575C204.516 45.4575 202.038 46.5345 201.012 48.9195L203.947 50.1692C204.573 48.9195 205.742 48.5116 206.966 48.5116C208.675 48.5116 210.413 49.5584 210.442 51.419V51.652C209.844 51.3024 208.562 50.78 206.996 50.78C203.833 50.78 200.614 52.5542 200.614 55.8695C200.614 58.8934 203.207 60.8424 206.114 60.8424C208.336 60.8424 209.56 59.8237 210.33 58.6322H210.444V60.3762H213.635V51.7083C213.633 47.6958 210.698 45.4575 206.909 45.4575V45.4575ZM206.509 57.8466C205.427 57.8466 203.917 57.294 203.917 55.9277C203.917 54.1837 205.797 53.5146 207.421 53.5146C208.873 53.5146 209.558 53.8341 210.44 54.2701C210.186 56.3637 208.419 57.8466 206.509 57.8466V57.8466Z" fill="white"/>
<path d="M221.468 55.7528H221.354L217.424 45.9517H213.863L219.76 59.6507L216.398 67.2698H219.845L228.934 45.9517H225.257L221.468 55.7528Z" fill="white"/>
<path d="M147.005 47.2179H146.888C146.146 46.3158 144.719 45.5 142.922 45.5C139.155 45.5 135.703 48.8796 135.703 53.2195C135.703 57.5314 139.155 60.8808 142.922 60.8808C144.719 60.8808 146.146 60.0651 146.888 59.1328H147.003V60.2399C147.003 63.1814 145.461 64.7546 142.979 64.7546C140.954 64.7546 139.698 63.2698 139.185 62.016L136.303 63.2397C137.13 65.2791 139.328 67.7846 142.981 67.7846C146.863 67.7846 150.144 65.4539 150.144 59.7737V45.9641H147.005V47.2179ZM143.206 57.8509C140.923 57.8509 139.011 55.8999 139.011 53.2195C139.011 50.5111 140.925 48.53 143.206 48.53C145.46 48.53 147.229 50.5111 147.229 53.2195C147.231 55.8999 145.461 57.8509 143.206 57.8509Z" fill="white"/>
<path d="M186.396 37.8086H178.475V60.4147H181.78V51.8492H186.396C190.061 51.8492 193.661 49.1408 193.661 44.8289C193.661 40.5171 190.061 37.8086 186.396 37.8086ZM186.482 48.7027H181.78V40.9531H186.48C188.953 40.9531 190.356 43.0427 190.356 44.8269C190.356 46.581 188.953 48.7027 186.482 48.7027Z" fill="white"/>
<path d="M155.736 37.8086H152.425V60.4147H155.736V37.8086Z" fill="white"/>
<path d="M170.89 50.3926C170.262 48.6747 168.351 45.498 164.44 45.498C160.558 45.498 157.334 48.6144 157.334 53.1895C157.334 57.5013 160.531 60.8809 164.812 60.8809C168.264 60.8809 170.262 58.7249 171.09 57.4732L168.522 55.7251C167.666 57.007 166.497 57.8509 164.812 57.8509C163.127 57.8509 161.93 57.0633 161.159 55.5202L171.232 51.2666L170.89 50.3926ZM160.615 52.9564C160.529 49.9847 162.869 48.4697 164.554 48.4697C165.867 48.4697 166.981 49.1388 167.351 50.1012L160.615 52.9564Z" fill="white"/>
<path d="M89.1684 26.4264L90.8466 26.859C90.4947 28.2659 89.8605 29.3402 88.9437 30.0818C88.0325 30.8178 86.9167 31.1857 85.5962 31.1857C84.2294 31.1857 83.1166 30.903 82.2574 30.338C81.404 29.767 80.7523 28.943 80.3025 27.8656C79.8585 26.7885 79.6364 25.6318 79.6364 24.3957C79.6364 23.0477 79.8874 21.8733 80.3891 20.8725C80.8965 19.866 81.6144 19.1037 82.5428 18.5857C83.477 18.0618 84.5034 17.7998 85.6222 17.7998C86.8907 17.7998 87.9575 18.1295 88.8224 18.7887C89.6875 19.448 90.29 20.3751 90.6303 21.5701L88.9781 21.9675C88.684 21.0256 88.2573 20.3398 87.6979 19.9101C87.1387 19.4804 86.4351 19.2656 85.5875 19.2656C84.613 19.2656 83.797 19.504 83.1396 19.9807C82.4881 20.4576 82.0297 21.0991 81.7644 21.9056C81.499 22.7061 81.3664 23.5333 81.3664 24.3868C81.3664 25.4875 81.5221 26.4499 81.8336 27.2741C82.1507 28.0923 82.6408 28.7045 83.3039 29.1106C83.9671 29.5168 84.6851 29.72 85.4578 29.72C86.3977 29.72 87.1935 29.4433 87.8452 28.89C88.4967 28.3366 88.9378 27.5154 89.1684 26.4264V26.4264ZM92.7149 21.5877H94.2718V25.6406C94.7676 25.6406 95.1136 25.5436 95.3097 25.3493C95.5116 25.155 95.8057 24.5898 96.1921 23.6539C96.4975 22.9122 96.7455 22.4236 96.9359 22.1881C97.1262 21.9526 97.3453 21.7937 97.5933 21.7113C97.8413 21.6289 98.2391 21.5877 98.7868 21.5877H99.0982V22.9034L98.6658 22.8946C98.2564 22.8946 97.994 22.9564 97.8787 23.08C97.7576 23.2094 97.573 23.595 97.3252 24.2367C97.0886 24.849 96.8725 25.2727 96.6764 25.5082C96.4804 25.7437 96.1777 25.9585 95.7681 26.1528C96.4371 26.3352 97.0945 26.9709 97.7403 28.0599L99.4442 30.9649H97.7316L96.071 28.0599C95.7307 27.4773 95.4337 27.0945 95.18 26.9121C94.9262 26.7238 94.6235 26.6296 94.2718 26.6296V30.9649H92.7149V21.5877ZM106.866 29.8082C106.289 30.3085 105.733 30.6617 105.196 30.8679C104.666 31.0738 104.095 31.1769 103.484 31.1769C102.475 31.1769 101.699 30.9267 101.157 30.4262C100.615 29.9201 100.344 29.2755 100.344 28.4925C100.344 28.0334 100.445 27.6155 100.647 27.2388C100.854 26.8562 101.122 26.55 101.451 26.3205C101.786 26.0909 102.16 25.9173 102.575 25.7995C102.881 25.7172 103.342 25.6376 103.959 25.561C105.216 25.4081 106.142 25.2257 106.736 25.0137C106.742 24.7959 106.745 24.6575 106.745 24.5986C106.745 23.9512 106.598 23.4949 106.304 23.2301C105.906 22.8711 105.314 22.6914 104.53 22.6914C103.798 22.6914 103.256 22.8238 102.904 23.0889C102.558 23.3478 102.302 23.81 102.134 24.475L100.612 24.2633C100.75 23.598 100.978 23.0623 101.295 22.6561C101.612 22.2442 102.071 21.9291 102.671 21.7113C103.27 21.4877 103.965 21.3758 104.755 21.3758C105.539 21.3758 106.177 21.47 106.667 21.6585C107.157 21.8467 107.517 22.0852 107.748 22.3736C107.979 22.6561 108.14 23.0153 108.232 23.4509C108.284 23.7216 108.31 24.2102 108.31 24.9165V27.0356C108.31 28.5132 108.342 29.4491 108.405 29.8435C108.475 30.2321 108.607 30.6059 108.803 30.9649H107.177C107.016 30.6352 106.912 30.2496 106.866 29.8082V29.8082ZM106.736 26.2586C106.171 26.4941 105.323 26.6943 104.193 26.859C103.553 26.9532 103.1 27.0593 102.835 27.1769C102.57 27.2946 102.365 27.4684 102.221 27.6979C102.077 27.9217 102.005 28.1719 102.005 28.4485C102.005 28.8723 102.16 29.2255 102.472 29.508C102.789 29.7905 103.25 29.9318 103.856 29.9318C104.455 29.9318 104.989 29.7993 105.456 29.5345C105.923 29.2637 106.266 28.8958 106.485 28.4308C106.652 28.0718 106.736 27.542 106.736 26.8415V26.2586ZM109.763 21.5877H111.32V23.3625C111.32 24.1278 111.364 24.684 111.45 25.0314C111.542 25.3728 111.759 25.6729 112.099 25.9319C112.439 26.1851 112.866 26.3117 113.379 26.3117C113.967 26.3117 114.728 26.1528 115.662 25.8349V21.5877H117.219V30.9649H115.662V27.1857C114.705 27.4919 113.811 27.645 112.981 27.645C112.283 27.645 111.666 27.4654 111.13 27.1063C110.599 26.7413 110.239 26.297 110.049 25.773C109.858 25.2492 109.763 24.6723 109.763 24.0424V21.5877ZM125.566 29.8082C124.99 30.3085 124.433 30.6617 123.897 30.8679C123.366 31.0738 122.796 31.1769 122.184 31.1769C121.175 31.1769 120.4 30.9267 119.857 30.4262C119.315 29.9201 119.044 29.2755 119.044 28.4925C119.044 28.0334 119.145 27.6155 119.347 27.2388C119.555 26.8562 119.823 26.55 120.152 26.3205C120.486 26.0909 120.861 25.9173 121.276 25.7995C121.582 25.7172 122.043 25.6376 122.66 25.561C123.917 25.4081 124.843 25.2257 125.437 25.0137C125.442 24.7959 125.445 24.6575 125.445 24.5986C125.445 23.9512 125.298 23.4949 125.004 23.2301C124.606 22.8711 124.015 22.6914 123.231 22.6914C122.499 22.6914 121.956 22.8238 121.605 23.0889C121.259 23.3478 121.002 23.81 120.835 24.475L119.313 24.2633C119.451 23.598 119.679 23.0623 119.996 22.6561C120.313 22.2442 120.772 21.9291 121.371 21.7113C121.971 21.4877 122.666 21.3758 123.456 21.3758C124.24 21.3758 124.877 21.47 125.367 21.6585C125.858 21.8467 126.218 22.0852 126.448 22.3736C126.679 22.6561 126.841 23.0153 126.933 23.4509C126.985 23.7216 127.011 24.2102 127.011 24.9165V27.0356C127.011 28.5132 127.042 29.4491 127.106 29.8435C127.175 30.2321 127.308 30.6059 127.504 30.9649H125.878C125.716 30.6352 125.612 30.2496 125.566 29.8082V29.8082ZM125.437 26.2586C124.871 26.4941 124.024 26.6943 122.894 26.859C122.253 26.9532 121.801 27.0593 121.536 27.1769C121.27 27.2946 121.066 27.4684 120.921 27.6979C120.777 27.9217 120.705 28.1719 120.705 28.4485C120.705 28.8723 120.861 29.2255 121.172 29.508C121.489 29.7905 121.951 29.9318 122.556 29.9318C123.156 29.9318 123.689 29.7993 124.156 29.5345C124.623 29.2637 124.967 28.8958 125.186 28.4308C125.353 28.0718 125.437 27.542 125.437 26.8415V26.2586ZM128.196 21.5877H135.66V22.9034H132.702V30.9649H131.154V22.9034H128.196V21.5877ZM137.122 21.5877H138.679V25.252H140.651C141.937 25.252 142.926 25.5082 143.618 26.0203C144.316 26.5265 144.665 27.2269 144.665 28.1218C144.665 28.9046 144.374 29.5757 143.791 30.1349C143.214 30.6882 142.289 30.9649 141.015 30.9649H137.122V21.5877ZM138.679 29.6581H140.314C141.3 29.6581 142.004 29.5345 142.424 29.2872C142.845 29.04 143.056 28.6545 143.056 28.1307C143.056 27.7244 142.9 27.3623 142.589 27.0445C142.277 26.7266 141.588 26.5677 140.521 26.5677H138.679V29.6581ZM151.325 21.5877H154.915C155.797 21.5877 156.451 21.6643 156.878 21.8174C157.311 21.9645 157.68 22.2381 157.985 22.6386C158.297 23.0388 158.452 23.5184 158.452 24.0778C158.452 24.5251 158.36 24.9165 158.176 25.252C157.997 25.5817 157.726 25.8584 157.362 26.082C157.795 26.2293 158.153 26.506 158.435 26.9121C158.723 27.3123 158.867 27.7891 158.867 28.3424C158.81 29.2313 158.498 29.8906 157.933 30.3203C157.368 30.7501 156.546 30.9649 155.468 30.9649H151.325V21.5877ZM152.882 25.5347H154.543C155.206 25.5347 155.661 25.4994 155.909 25.4286C156.157 25.3581 156.379 25.2168 156.575 25.0049C156.771 24.7871 156.869 24.5281 156.869 24.2279C156.869 23.7334 156.696 23.389 156.35 23.1947C156.01 23.0004 155.425 22.9034 154.594 22.9034H152.882V25.5347ZM152.882 29.6581H154.932C155.814 29.6581 156.42 29.555 156.748 29.3491C157.077 29.1371 157.25 28.7752 157.267 28.2631C157.267 27.9629 157.172 27.6862 156.982 27.4331C156.792 27.1741 156.544 27.0121 156.238 26.9474C155.932 26.8767 155.442 26.8415 154.768 26.8415H152.882V29.6581Z" fill="white"/>
</g>
<defs>
<clipPath id="clip0_221_35">
<rect width="251.94" height="80.37" fill="white" transform="translate(0.0230103 0.826172)"/>
</clipPath>
</defs>
</svg>
