<svg width="22" height="22" viewBox="0 0 22 22" fill="none" xmlns="http://www.w3.org/2000/svg">
<path d="M13.9733 16.0541H13.8421C15.8316 13.6978 18.1355 10.2887 18.1355 7.13513C18.1355 3.1946 14.9409 0 11.0004 0C7.05983 0 3.86523 3.1946 3.86523 7.13513C3.86523 10.2887 6.16918 13.6978 8.15867 16.0541H8.0274C6.38548 16.0541 5.05444 17.3851 5.05444 19.027C5.05444 20.669 6.38548 22 8.0274 22H13.9733C15.6153 22 16.9463 20.669 16.9463 19.027C16.9463 17.3851 15.6153 16.0541 13.9733 16.0541ZM5.649 7.13513C5.649 4.18438 8.04962 1.78376 11.0004 1.78376C13.9511 1.78376 16.3517 4.18438 16.3517 7.13513C16.3517 8.9907 15.2611 11.3709 13.1978 14.0185C12.4134 15.0251 11.6209 15.8956 11.0004 16.5367C10.3797 15.8956 9.58726 15.0249 8.80299 14.0185C6.73963 11.3709 5.649 8.9907 5.649 7.13513ZM13.9733 20.2162H8.0274C7.3717 20.2162 6.8382 19.6828 6.8382 19.027C6.8382 18.3713 7.37166 17.8378 8.0274 17.8378H9.77666C10.5055 18.5869 11.0004 19.027 11.0004 19.027C11.0004 19.027 11.4954 18.587 12.2242 17.8378H13.9734C14.6291 17.8378 15.1626 18.3713 15.1626 19.027C15.1625 19.6827 14.6291 20.2162 13.9733 20.2162Z" fill="black"/>
<path d="M11.0003 4.16211C9.35839 4.16211 8.02734 5.49311 8.02734 7.13508C8.02734 8.77687 9.35839 10.108 11.0003 10.108C12.6422 10.108 13.9733 8.77687 13.9733 7.13508C13.9733 5.49311 12.6422 4.16211 11.0003 4.16211ZM11.0003 8.32428C10.3446 8.32428 9.81111 7.79082 9.81111 7.13508C9.81111 6.47933 10.3446 5.94587 11.0003 5.94587C11.656 5.94587 12.1895 6.47933 12.1895 7.13508C12.1895 7.79082 11.656 8.32428 11.0003 8.32428Z" fill="black"/>
</svg>
