<svg width="252" height="81" viewBox="0 0 252 81" fill="none" xmlns="http://www.w3.org/2000/svg">
<g clip-path="url(#clip0_221_55)">
<path d="M243.542 1.00488L8.39802 1.00488C4.33968 1.00488 1.04975 4.15357 1.04975 8.03767L1.04975 72.3375C1.04975 76.2216 4.33968 79.3703 8.39802 79.3703H243.542C247.601 79.3703 250.891 76.2216 250.891 72.3375V8.03767C250.891 4.15357 247.601 1.00488 243.542 1.00488Z" fill="#221F1F" stroke="#4D4B4B"/>
<path d="M56.4101 39.7136C56.3545 33.6204 61.4817 30.6566 61.7166 30.518C58.8124 26.3527 54.311 25.7837 52.7307 25.7395C48.951 25.3489 45.2844 27.9639 43.3583 27.9639C41.3936 27.9639 38.4274 25.7773 35.2328 25.8404C31.1199 25.9032 27.2719 28.2454 25.1621 31.8811C20.8079 39.2979 24.0559 50.1949 28.2287 56.1897C30.3149 59.126 32.7558 62.4026 35.946 62.2871C39.0703 62.1611 40.2362 60.3296 44.0052 60.3296C47.7402 60.3296 48.8357 62.2871 52.0902 62.2135C55.4427 62.1611 57.5524 59.2646 59.5663 56.303C61.9771 52.9381 62.9467 49.6236 62.9851 49.4535C62.9039 49.4303 56.4741 47.0149 56.4101 39.7136V39.7136Z" fill="white"/>
<path d="M50.26 21.7951C51.9407 19.7282 53.0895 16.9178 52.7694 14.0654C50.3392 14.1705 47.2983 15.7185 45.5473 17.7412C43.9989 19.5224 42.6153 22.4399 42.9718 25.1851C45.7031 25.3846 48.5069 23.8304 50.26 21.7951V21.7951Z" fill="white"/>
<path d="M105.565 60.596H101.274L98.9223 53.527H90.7511L88.5109 60.596H84.3329L92.4286 36.5298H97.4275L105.565 60.596ZM98.2148 50.5612L96.088 44.2759C95.8634 43.6349 95.4414 42.1219 94.8199 39.7428H94.7443C94.4966 40.7655 94.0977 42.2786 93.5497 44.2759L91.4628 50.5612H98.2148Z" fill="white"/>
<path d="M126.382 51.7049C126.382 54.6566 125.548 56.9895 123.881 58.7015C122.388 60.2266 120.534 60.9881 118.322 60.9881C115.932 60.9881 114.217 60.1663 113.174 58.5247H113.098V67.6653H109.069V48.954C109.069 47.0994 109.019 45.1945 108.92 43.2414H112.464L112.689 45.9922H112.764C114.108 43.9206 116.146 42.8857 118.882 42.8857C121.021 42.8857 122.806 43.6935 124.236 45.3131C125.668 46.9326 126.382 49.0625 126.382 51.7049V51.7049ZM122.277 51.8455C122.277 50.1556 121.88 48.7631 121.082 47.668C120.211 46.5247 119.042 45.954 117.576 45.954C116.583 45.954 115.678 46.2715 114.872 46.9005C114.064 47.5334 113.535 48.3593 113.287 49.384C113.163 49.8623 113.1 50.2521 113.1 50.5595V53.453C113.1 54.7149 113.505 55.7799 114.314 56.6499C115.122 57.52 116.174 57.954 117.465 57.954C118.983 57.954 120.163 57.3934 121.009 56.2762C121.853 55.1549 122.277 53.6801 122.277 51.8455V51.8455Z" fill="white"/>
<path d="M147.236 51.7049C147.236 54.6566 146.403 56.9895 144.734 58.7015C143.243 60.2266 141.389 60.9881 139.176 60.9881C136.787 60.9881 135.072 60.1663 134.028 58.5247H133.953V67.6653H129.924V48.954C129.924 47.0994 129.873 45.1945 129.775 43.2414H133.318L133.543 45.9922H133.619C134.96 43.9206 136.999 42.8857 139.737 42.8857C141.874 42.8857 143.659 43.6935 145.093 45.3131C146.52 46.9326 147.236 49.0625 147.236 51.7049V51.7049ZM143.132 51.8455C143.132 50.1556 142.733 48.7631 141.935 47.668C141.064 46.5247 139.898 45.954 138.429 45.954C137.434 45.954 136.531 46.2715 135.722 46.9005C134.914 47.5334 134.387 48.3593 134.139 49.384C134.016 49.8623 133.953 50.2521 133.953 50.5595V53.453C133.953 54.7149 134.358 55.7799 135.162 56.6499C135.97 57.518 137.022 57.954 138.317 57.954C139.835 57.954 141.015 57.3934 141.861 56.2762C142.71 55.1549 143.132 53.6801 143.132 51.8455V51.8455Z" fill="white"/>
<path d="M170.553 53.8466C170.553 55.8941 169.81 57.5599 168.319 58.8459C166.682 60.2505 164.4 60.9537 161.469 60.9537C158.762 60.9537 156.594 60.4554 154.952 59.4547L155.886 56.2418C157.654 57.2645 159.596 57.7789 161.71 57.7789C163.228 57.7789 164.408 57.4494 165.256 56.7943C166.1 56.1393 166.522 55.2612 166.522 54.1641C166.522 53.1875 166.174 52.3637 165.477 51.6966C164.784 51.0295 163.625 50.4086 162.008 49.8359C157.606 48.2646 155.405 45.9618 155.405 42.9357C155.405 40.9565 156.176 39.3349 157.719 38.0731C159.258 36.8092 161.309 36.1782 163.875 36.1782C166.163 36.1782 168.063 36.56 169.581 37.3216L168.573 40.4642C167.156 39.7268 165.554 39.357 163.761 39.357C162.344 39.357 161.238 39.6926 160.444 40.3577C159.774 40.9525 159.436 41.6779 159.436 42.5359C159.436 43.4863 159.821 44.274 160.591 44.8929C161.263 45.4635 162.481 46.0824 164.248 46.7495C166.411 47.5834 168 48.5579 169.023 49.6752C170.045 50.7883 170.553 52.1828 170.553 53.8466V53.8466Z" fill="white"/>
<path d="M183.873 46.1346H179.432V54.5599C179.432 56.7019 180.215 57.7729 181.784 57.7729C182.504 57.7729 183.1 57.7126 183.572 57.5941L183.684 60.5217C182.89 60.805 181.845 60.9477 180.551 60.9477C178.96 60.9477 177.717 60.4835 176.82 59.5552C175.926 58.6249 175.477 57.0676 175.477 54.8774V46.1306H172.831V43.2371H175.477V40.0603L179.434 38.917V43.2371H183.875L183.873 46.1346Z" fill="white"/>
<path d="M203.908 51.7752C203.908 54.4436 203.11 56.6318 201.519 58.3458C199.85 60.108 197.637 60.9881 194.876 60.9881C192.216 60.9881 190.098 60.1442 188.519 58.4543C186.94 56.7644 186.149 54.6325 186.149 52.0625C186.149 49.374 186.961 47.1717 188.592 45.4577C190.219 43.7437 192.416 42.8857 195.176 42.8857C197.836 42.8857 199.978 43.7297 201.592 45.4216C203.138 47.0632 203.908 49.1811 203.908 51.7752V51.7752ZM199.728 51.8998C199.728 50.2983 199.371 48.9259 198.647 47.7826C197.803 46.3981 196.596 45.7069 195.029 45.7069C193.411 45.7069 192.18 46.4001 191.334 47.7826C190.61 48.9299 190.253 50.3244 190.253 51.9721C190.253 53.5716 190.61 54.946 191.334 56.0873C192.206 57.4717 193.423 58.163 194.992 58.163C196.531 58.163 197.738 57.4577 198.609 56.0511C199.354 54.8857 199.728 53.4992 199.728 51.8998V51.8998Z" fill="white"/>
<path d="M217.003 46.6328C216.604 46.5625 216.18 46.5263 215.732 46.5263C214.315 46.5263 213.219 47.0387 212.449 48.0635C211.777 48.9677 211.441 50.1111 211.441 51.4895V60.5939H207.414L207.452 48.7045C207.452 46.7052 207.402 44.8827 207.301 43.241H210.809L210.956 46.5605H211.067C211.491 45.4192 212.163 44.5009 213.081 43.8117C213.977 43.1908 214.947 42.8813 215.993 42.8813C216.364 42.8813 216.702 42.9075 217.001 42.9517C217.003 42.9557 217.003 46.6328 217.003 46.6328V46.6328Z" fill="white"/>
<path d="M235.018 51.098C235.018 51.7892 234.972 52.372 234.872 52.8462H222.787C222.833 54.5602 223.419 55.8723 224.54 56.7765C225.558 57.5843 226.875 57.9901 228.493 57.9901C230.282 57.9901 231.915 57.7169 233.383 57.1683L234.015 59.8448C232.3 60.5601 230.274 60.9178 227.937 60.9178C225.126 60.9178 222.919 60.1261 221.313 58.5427C219.711 56.9593 218.907 54.8354 218.907 52.169C218.907 49.5528 219.652 47.3726 221.147 45.6345C222.711 43.7799 224.825 42.8516 227.488 42.8516C230.101 42.8516 232.079 43.7799 233.423 45.6345C234.485 47.1094 235.018 48.9319 235.018 51.098V51.098ZM231.178 50.0973C231.206 48.954 230.941 47.9674 230.395 47.1335C229.698 46.0605 228.628 45.526 227.185 45.526C225.869 45.526 224.796 46.0485 223.979 47.0974C223.307 47.9312 222.911 48.9319 222.787 50.0953L231.178 50.0973Z" fill="white"/>
<path d="M95.0886 25.6017L96.8787 26.0343C96.5033 27.4413 95.8268 28.5157 94.8489 29.2574C93.877 29.9934 92.6868 30.3613 91.2783 30.3613C89.8204 30.3613 88.6333 30.0786 87.7169 29.5136C86.8065 28.9425 86.1114 28.1185 85.6316 27.041C85.158 25.9638 84.9212 24.807 84.9212 23.5709C84.9212 22.2228 85.1889 21.0483 85.724 20.0475C86.2653 19.0409 87.031 18.2785 88.0213 17.7605C89.0177 17.2366 90.1126 16.9746 91.306 16.9746C92.6591 16.9746 93.797 17.3043 94.7195 17.9636C95.6423 18.6229 96.2849 19.5501 96.6479 20.7451L94.8856 21.1425C94.572 20.2006 94.1168 19.5148 93.5201 19.085C92.9236 18.6553 92.1731 18.4404 91.269 18.4404C90.2295 18.4404 89.3591 18.6789 88.6579 19.1557C87.9629 19.6325 87.474 20.2741 87.1909 21.0807C86.9079 21.8812 86.7664 22.7084 86.7664 23.562C86.7664 24.6628 86.9325 25.6252 87.2648 26.4495C87.6031 27.2677 88.1258 27.88 88.8332 28.286C89.5405 28.6923 90.3064 28.8955 91.1307 28.8955C92.1332 28.8955 92.982 28.6188 93.6771 28.0654C94.3721 27.512 94.8426 26.6908 95.0886 25.6017V25.6017ZM98.8715 20.7628H100.532V24.8159C101.061 24.8159 101.43 24.7188 101.639 24.5245C101.855 24.3302 102.168 23.765 102.581 22.829C102.906 22.0873 103.171 21.5987 103.374 21.3632C103.577 21.1277 103.811 20.9687 104.075 20.8863C104.34 20.804 104.764 20.7628 105.348 20.7628H105.68V22.0785L105.219 22.0697C104.782 22.0697 104.503 22.1316 104.38 22.2551C104.25 22.3845 104.054 22.7701 103.789 23.4119C103.537 24.0242 103.306 24.448 103.097 24.6835C102.888 24.9189 102.565 25.1337 102.128 25.3281C102.842 25.5105 103.543 26.1463 104.232 27.2353L106.05 30.1405H104.223L102.451 27.2353C102.088 26.6526 101.772 26.2698 101.501 26.0874C101.23 25.8991 100.907 25.8049 100.532 25.8049V30.1405H98.8715V20.7628ZM113.966 28.9837C113.351 29.484 112.757 29.8373 112.185 30.0434C111.619 30.2494 111.01 30.3525 110.358 30.3525C109.282 30.3525 108.455 30.1023 107.876 29.6018C107.298 29.0956 107.009 28.451 107.009 27.668C107.009 27.2088 107.117 26.7909 107.332 26.4141C107.553 26.0315 107.84 25.7253 108.19 25.4958C108.547 25.2662 108.947 25.0926 109.389 24.9748C109.715 24.8924 110.208 24.8129 110.866 24.7363C112.207 24.5834 113.194 24.4009 113.827 24.1889C113.833 23.9711 113.837 23.8327 113.837 23.7738C113.837 23.1264 113.68 22.6701 113.366 22.4052C112.942 22.0462 112.311 21.8665 111.475 21.8665C110.693 21.8665 110.115 21.9989 109.74 22.264C109.371 22.523 109.097 22.9851 108.919 23.6502L107.295 23.4384C107.443 22.7731 107.686 22.2374 108.024 21.8312C108.362 21.4192 108.851 21.1042 109.491 20.8863C110.131 20.6627 110.872 20.5508 111.715 20.5508C112.551 20.5508 113.231 20.645 113.754 20.8335C114.276 21.0218 114.661 21.2603 114.907 21.5486C115.153 21.8312 115.325 22.1904 115.424 22.6261C115.479 22.8967 115.507 23.3854 115.507 24.0917V26.211C115.507 27.6887 115.54 28.6246 115.608 29.0191C115.682 29.4077 115.823 29.7814 116.032 30.1405H114.298C114.126 29.8108 114.015 29.4252 113.966 28.9837V28.9837ZM113.827 25.4339C113.225 25.6694 112.32 25.8696 111.115 26.0343C110.432 26.1286 109.949 26.2347 109.666 26.3522C109.383 26.47 109.165 26.6438 109.011 26.8733C108.857 27.0971 108.781 27.3473 108.781 27.624C108.781 28.0477 108.947 28.401 109.279 28.6835C109.617 28.966 110.109 29.1073 110.755 29.1073C111.395 29.1073 111.964 28.9749 112.462 28.71C112.96 28.4392 113.326 28.0712 113.56 27.6063C113.738 27.2472 113.827 26.7173 113.827 26.0169V25.4339ZM117.057 20.7628H118.717V22.5376C118.717 23.303 118.763 23.8592 118.856 24.2066C118.954 24.548 119.185 24.8482 119.548 25.1072C119.911 25.3604 120.366 25.487 120.913 25.487C121.541 25.487 122.353 25.3281 123.349 25.0102V20.7628H125.01V30.1405H123.349V26.3611C122.328 26.6673 121.374 26.8204 120.489 26.8204C119.745 26.8204 119.086 26.6408 118.514 26.2817C117.948 25.9166 117.564 25.4723 117.361 24.9483C117.158 24.4244 117.057 23.8476 117.057 23.2176V20.7628ZM133.913 28.9837C133.298 29.484 132.704 29.8373 132.132 30.0434C131.566 30.2494 130.958 30.3525 130.306 30.3525C129.229 30.3525 128.402 30.1023 127.824 29.6018C127.245 29.0956 126.956 28.451 126.956 27.668C126.956 27.2088 127.064 26.7909 127.279 26.4141C127.501 26.0315 127.787 25.7253 128.137 25.4958C128.494 25.2662 128.894 25.0926 129.337 24.9748C129.663 24.8924 130.155 24.8129 130.813 24.7363C132.154 24.5834 133.141 24.4009 133.775 24.1889C133.781 23.9711 133.784 23.8327 133.784 23.7738C133.784 23.1264 133.627 22.6701 133.313 22.4052C132.889 22.0462 132.258 21.8665 131.422 21.8665C130.641 21.8665 130.063 21.9989 129.687 22.264C129.318 22.523 129.045 22.9851 128.866 23.6502L127.243 23.4384C127.39 22.7731 127.633 22.2374 127.971 21.8312C128.31 21.4192 128.799 21.1042 129.438 20.8863C130.078 20.6627 130.819 20.5508 131.662 20.5508C132.498 20.5508 133.178 20.645 133.701 20.8335C134.224 21.0218 134.608 21.2603 134.854 21.5486C135.1 21.8312 135.273 22.1904 135.371 22.6261C135.426 22.8967 135.454 23.3854 135.454 24.0917V26.211C135.454 27.6887 135.488 28.6246 135.555 29.0191C135.629 29.4077 135.771 29.7814 135.98 30.1405H134.245C134.073 29.8108 133.962 29.4252 133.913 28.9837V28.9837ZM133.775 25.4339C133.172 25.6694 132.268 25.8696 131.062 26.0343C130.379 26.1286 129.897 26.2347 129.614 26.3522C129.331 26.47 129.112 26.6438 128.958 26.8733C128.805 27.0971 128.728 27.3473 128.728 27.624C128.728 28.0477 128.894 28.401 129.226 28.6835C129.564 28.966 130.057 29.1073 130.702 29.1073C131.342 29.1073 131.911 28.9749 132.409 28.71C132.907 28.4392 133.273 28.0712 133.507 27.6063C133.686 27.2472 133.775 26.7173 133.775 26.0169V25.4339ZM136.718 20.7628H144.68V22.0785H141.525V30.1405H139.873V22.0785H136.718V20.7628ZM146.239 20.7628H147.9V24.4273H150.004C151.376 24.4273 152.43 24.6835 153.168 25.1956C153.913 25.7018 154.285 26.4023 154.285 27.2972C154.285 28.0801 153.974 28.7512 153.353 29.3104C152.738 29.8638 151.751 30.1405 150.391 30.1405H146.239V20.7628ZM147.9 28.8336H149.644C150.696 28.8336 151.446 28.71 151.895 28.4627C152.344 28.2155 152.569 27.8299 152.569 27.3061C152.569 26.8998 152.403 26.5377 152.07 26.2198C151.738 25.9019 151.003 25.743 149.865 25.743H147.9V28.8336ZM161.389 20.7628H165.218C166.159 20.7628 166.857 20.8393 167.312 20.9924C167.774 21.1395 168.167 21.4132 168.493 21.8137C168.826 22.2139 168.992 22.6936 168.992 23.253C168.992 23.7003 168.893 24.0917 168.696 24.4273C168.506 24.757 168.217 25.0337 167.829 25.2573C168.29 25.4046 168.672 25.6813 168.973 26.0874C169.281 26.4877 169.434 26.9645 169.434 27.5179C169.373 28.4068 169.041 29.0661 168.438 29.4959C167.835 29.9257 166.959 30.1405 165.809 30.1405H161.389V20.7628ZM163.05 24.71H164.821C165.529 24.71 166.015 24.6746 166.279 24.6039C166.544 24.5334 166.78 24.3921 166.99 24.1801C167.199 23.9623 167.303 23.7033 167.303 23.4031C167.303 22.9086 167.119 22.5642 166.75 22.3699C166.387 22.1756 165.762 22.0785 164.877 22.0785H163.05V24.71ZM163.05 28.8336H165.236C166.178 28.8336 166.823 28.7305 167.174 28.5246C167.525 28.3126 167.709 27.9507 167.728 27.4385C167.728 27.1383 167.626 26.8616 167.423 26.6084C167.22 26.3494 166.956 26.1875 166.63 26.1228C166.304 26.052 165.781 26.0169 165.061 26.0169H163.05V28.8336Z" fill="white"/>
</g>
<defs>
<clipPath id="clip0_221_55">
<rect width="251.94" height="80.3747" fill="white"/>
</clipPath>
</defs>
</svg>
