<svg width="33" height="33" viewBox="0 0 33 33" fill="none" xmlns="http://www.w3.org/2000/svg">
<g clip-path="url(#clip0_38_846)">
<path d="M32.9849 10.6926C32.8632 8.41842 31.9003 6.28278 30.2734 4.67908C28.6257 3.05498 26.4757 2.16051 24.2196 2.16051C20.8621 2.16051 18.4286 4.81523 17.1214 6.24154C16.9195 6.4618 16.683 6.71981 16.5184 6.87723C16.3866 6.74087 16.208 6.53751 16.0437 6.35052C14.8498 4.99055 12.365 2.16062 8.78116 2.16062C6.52508 2.16062 4.37515 3.05509 2.72749 4.67919C1.10045 6.28278 0.137357 8.41831 0.0156074 10.6926C-0.105597 12.9631 0.475115 14.9387 1.89858 17.0987C3.02488 18.8081 5.99455 22.1461 9.12012 25.2162C10.73 26.7975 12.2118 28.1377 13.405 29.0917C15.3428 30.6408 16.0849 30.8395 16.5149 30.8395C16.918 30.8395 17.6804 30.6587 19.6366 29.0961C20.8272 28.1451 22.3038 26.807 23.9069 25.2267C27.0045 22.1731 29.9633 18.8307 31.1024 17.0983C32.0605 15.6412 33.1402 13.5964 32.9849 10.6926Z" fill="#FC8181"/>
</g>
<defs>
<clipPath id="clip0_38_846">
<rect width="33" height="33" fill="white"/>
</clipPath>
</defs>
</svg>
