<svg width="314" height="324" viewBox="0 0 314 324" fill="none" xmlns="http://www.w3.org/2000/svg">
<mask id="mask0_221_1370" style="mask-type:alpha" maskUnits="userSpaceOnUse" x="0" y="183" width="143" height="140">
<rect y="183" width="143" height="140" rx="23" fill="url(#paint0_radial_221_1370)"/>
</mask>
<g mask="url(#mask0_221_1370)">
<rect y="183" width="143" height="140" fill="url(#paint1_radial_221_1370)"/>
<ellipse cx="53.5" cy="244.5" rx="9.5" ry="12.5" fill="#21201C"/>
<ellipse cx="92.5" cy="244.5" rx="9.5" ry="12.5" fill="#21201C"/>
<ellipse cx="72.5" cy="282.5" rx="23.5" ry="14.5" fill="#21201C"/>
<path d="M103.862 233.507C112.668 252.232 133.623 264.304 143 268V183H103.862C100.193 192.034 95.0563 214.783 103.862 233.507Z" fill="#5A3E21"/>
<path d="M39.1378 233.507C30.3318 252.232 9.37675 264.304 0 268V183H39.1378C42.8069 192.034 47.9437 214.783 39.1378 233.507Z" fill="#5A3E21"/>
</g>
<path d="M157 189.598V321C157 322.657 158.343 324 160 324H297C298.657 324 300 322.657 300 321V190.185C300 187.679 297.11 186.278 295.143 187.829L272.839 205.411C272.31 205.828 271.655 206.055 270.981 206.055H191.066C190.475 206.055 189.897 205.88 189.405 205.553L161.661 187.1C159.668 185.774 157 187.204 157 189.598Z" fill="url(#paint2_linear_221_1370)"/>
<mask id="mask1_221_1370" style="mask-type:alpha" maskUnits="userSpaceOnUse" x="157" y="198" width="143" height="125">
<path d="M157 217.274V302C157 313.598 166.402 323 178 323H279C290.598 323 300 313.598 300 302V213.496C300 201.142 285.752 194.231 276.05 201.879C273.441 203.936 270.215 205.055 266.892 205.055H195.71C192.09 205.055 188.552 203.985 185.538 201.981C173.331 193.862 157 202.614 157 217.274Z" fill="#FECA32"/>
</mask>
<g mask="url(#mask1_221_1370)">
<path d="M157 217.274V302C157 313.598 166.402 323 178 323H279C290.598 323 300 313.598 300 302V213.496C300 201.142 285.752 194.231 276.05 201.879C273.441 203.936 270.215 205.055 266.892 205.055H195.71C192.09 205.055 188.552 203.985 185.538 201.981C173.331 193.862 157 202.614 157 217.274Z" fill="#FECA32"/>
<ellipse cx="209.5" cy="244.5" rx="9.5" ry="12.5" fill="#21201C"/>
<ellipse cx="248.5" cy="244.5" rx="9.5" ry="12.5" fill="#21201C"/>
<path d="M233.667 290.977C231.342 293.221 227.658 293.221 225.333 290.977L213.773 279.817C209.89 276.068 212.543 269.5 217.94 269.5L241.06 269.5C246.457 269.5 249.11 276.069 245.227 279.817L233.667 290.977Z" fill="#21201C"/>
<path d="M169 276H199V276C199 278.761 196.761 281 194 281H174C171.239 281 169 278.761 169 276V276Z" fill="#E4702F"/>
<path d="M171.577 257L200.045 266.464V266.464C199.174 269.085 196.344 270.503 193.723 269.631L174.745 263.322C172.124 262.451 170.706 259.62 171.577 257V257Z" fill="#E4702F"/>
<path d="M170 296.644L198.408 287V287C199.295 289.615 197.895 292.454 195.28 293.342L176.342 299.771C173.727 300.659 170.888 299.259 170 296.644V296.644Z" fill="#E4702F"/>
<path d="M289.045 276H259.045V276C259.045 278.761 261.284 281 264.045 281H284.045C286.807 281 289.045 278.761 289.045 276V276Z" fill="#E4702F"/>
<path d="M286.468 257L258 266.464V266.464C258.871 269.085 261.702 270.503 264.322 269.631L283.301 263.322C285.921 262.451 287.339 259.62 286.468 257V257Z" fill="#E4702F"/>
<path d="M287.045 296.644L258.638 287V287C257.75 289.615 259.15 292.454 261.765 293.342L280.704 299.771C283.318 300.659 286.158 299.259 287.045 296.644V296.644Z" fill="#E4702F"/>
</g>
<rect x="47" y="5.5426" width="11" height="30" transform="rotate(-30.2564 47 5.5426)" fill="#3CB0DC"/>
<rect x="78.8177" y="10.0596" width="11" height="18.9579" transform="rotate(24.3541 78.8177 10.0596)" fill="#3CB0DC"/>
<mask id="mask2_221_1370" style="mask-type:alpha" maskUnits="userSpaceOnUse" x="0" y="26" width="143" height="140">
<rect y="26" width="143" height="140" rx="23" fill="url(#paint3_radial_221_1370)"/>
</mask>
<g mask="url(#mask2_221_1370)">
<rect y="26" width="143" height="140" fill="url(#paint4_radial_221_1370)"/>
<ellipse cx="24" cy="86" rx="35" ry="38" fill="#F2E858"/>
<ellipse cx="119" cy="85" rx="35" ry="38" fill="#F2E858"/>
<path d="M110 67.5C110 72.7467 105.747 77 100.5 77C95.2533 77 91 72.7467 91 67.5C91 62.2533 95.2533 58 100.5 58C105.747 58 110 62.2533 110 67.5Z" fill="#21201C"/>
<circle cx="42.5" cy="67.5" r="9.5" fill="#21201C"/>
<path d="M65.6823 82.4902C68.0812 79.2585 72.9188 79.2585 75.3177 82.4902L90.6713 103.174C93.6101 107.133 90.7842 112.75 85.8536 112.75H55.1464C50.2158 112.75 47.3899 107.133 50.3287 103.174L65.6823 82.4902Z" fill="#21201C"/>
<path d="M76.5866 136.285C73.9035 141.008 67.0965 141.008 64.4134 136.285L50.0264 110.957C47.3757 106.291 50.7462 100.5 56.113 100.5L84.887 100.5C90.2538 100.5 93.6243 106.291 90.9736 110.957L76.5866 136.285Z" fill="#21201C"/>
</g>
<rect x="160" y="29" width="140" height="140" rx="23" fill="#C4C4C4"/>
<mask id="mask3_221_1370" style="mask-type:alpha" maskUnits="userSpaceOnUse" x="160" y="29" width="140" height="140">
<rect x="160" y="29" width="140" height="140" rx="23" fill="#C4C4C4"/>
</mask>
<g mask="url(#mask3_221_1370)">
<circle cx="252" cy="80" r="11" fill="#5D5D5C"/>
<circle cx="252" cy="80" r="11" fill="#5D5D5C"/>
<circle cx="252" cy="80" r="11" fill="#5D5D5C"/>
<circle cx="207" cy="80" r="11" fill="#5D5D5C"/>
<circle cx="207" cy="80" r="11" fill="#5D5D5C"/>
<circle cx="207" cy="80" r="11" fill="#5D5D5C"/>
<rect x="158.569" y="226.137" width="80" height="80" transform="rotate(-135 158.569 226.137)" fill="#888888"/>
<rect x="300.569" y="226.137" width="80" height="80" transform="rotate(-135 300.569 226.137)" fill="#888888"/>
</g>
<circle cx="170.5" cy="26.5" r="23.5" fill="#C4C4C4"/>
<circle cx="290.5" cy="26.5" r="23.5" fill="#C4C4C4"/>
<circle cx="229.5" cy="171.5" r="15.5" fill="#353434"/>
<defs>
<radialGradient id="paint0_radial_221_1370" cx="0" cy="0" r="1" gradientUnits="userSpaceOnUse" gradientTransform="translate(71.5 253) rotate(90) scale(70 71.5)">
<stop stop-color="#C0895B"/>
<stop offset="1" stop-color="#A87245"/>
</radialGradient>
<radialGradient id="paint1_radial_221_1370" cx="0" cy="0" r="1" gradientUnits="userSpaceOnUse" gradientTransform="translate(71.5 253) rotate(90) scale(70 71.5)">
<stop stop-color="#C0895B"/>
<stop offset="1" stop-color="#A87245"/>
</radialGradient>
<linearGradient id="paint2_linear_221_1370" x1="228.5" y1="184" x2="228.5" y2="324" gradientUnits="userSpaceOnUse">
<stop stop-color="#FECA32"/>
<stop offset="0.546875" stop-color="#FDD359"/>
<stop offset="0.8125" stop-color="#FDD357" stop-opacity="0"/>
<stop offset="1" stop-color="#FDD357" stop-opacity="0"/>
</linearGradient>
<radialGradient id="paint3_radial_221_1370" cx="0" cy="0" r="1" gradientUnits="userSpaceOnUse" gradientTransform="translate(71.5 96) rotate(90) scale(70 71.5)">
<stop stop-color="#94C120"/>
<stop offset="1" stop-color="#95C120"/>
</radialGradient>
<radialGradient id="paint4_radial_221_1370" cx="0" cy="0" r="1" gradientUnits="userSpaceOnUse" gradientTransform="translate(71.5 96) rotate(90) scale(70 71.5)">
<stop stop-color="#94C120"/>
<stop offset="1" stop-color="#95C120"/>
</radialGradient>
</defs>
</svg>
