<svg width="101" height="120" viewBox="0 0 101 120" fill="none" xmlns="http://www.w3.org/2000/svg">
<path fill-rule="evenodd" clip-rule="evenodd" d="M19.9853 80.9564L32.2002 103.259L39.7199 100.526L30.7177 77.5807L19.9853 80.9564Z" fill="#002F34"/>
<mask id="mask0_40_2009" style="mask-type:alpha" maskUnits="userSpaceOnUse" x="4" y="48" width="36" height="44">
<path d="M10.2007 48.5923L39.5164 60.1916L33.3491 91.1844L4.03341 79.585L10.2007 48.5923Z" fill="white"/>
</mask>
<g mask="url(#mask0_40_2009)">
<path fill-rule="evenodd" clip-rule="evenodd" d="M22.024 84.6159L35.3958 80.1797L26.3547 54.782L12.9848 59.217C7.54979 61.0206 4.99403 67.6807 7.27704 74.0938L8.05098 76.2678C10.3332 82.6807 16.5901 86.418 22.0249 84.6154" fill="#FF8169"/>
</g>
<path fill-rule="evenodd" clip-rule="evenodd" d="M70.346 49.9059C75.8267 66.1668 76.0406 80.8886 70.8223 82.7884C65.6056 84.6887 56.9328 73.0472 51.4521 56.7864C45.9732 40.5252 45.7593 25.8034 50.9761 23.903C56.1928 22.0026 64.8653 33.6451 70.346 49.9059Z" fill="#FF5636"/>
<path fill-rule="evenodd" clip-rule="evenodd" d="M25.8337 52.6698C25.9938 53.1422 23.6573 57.3632 26.6923 66.3134C30.234 76.7545 34.1872 77.3021 34.4335 78.028C47.4403 73.3313 58.7089 87.1201 70.8763 82.7257L60.9281 53.3909L58.5677 46.4311L51.1486 24.5529C38.9804 28.947 38.8394 47.9746 25.8336 52.6707" fill="#FF5636"/>
<path fill-rule="evenodd" clip-rule="evenodd" d="M67.7429 49.5158C72.2316 62.9667 73.1418 74.878 69.7746 76.1203C66.4072 77.3635 60.0377 67.4644 55.5491 54.0135C51.0594 40.5632 50.1502 28.6513 53.5174 27.409C56.8846 26.1667 63.2535 36.0646 67.7429 49.5158Z" fill="#FFAA9A"/>
<path d="M78.768 64.5786L91.6301 67.1363M73.2254 46.0938L90.74 39.7236L73.2254 46.0938ZM66.6896 28.5716L75.1552 18.397L66.6896 28.5716Z" stroke="#FF5636"/>
</svg>
